<svg width="32" height="32" viewBox="0 0 32 32" fill="none" xmlns="http://www.w3.org/2000/svg">
<path opacity="0.3" fill-rule="evenodd" clip-rule="evenodd" d="M5.3333 20C5.3333 23.6819 8.31807 26.6666 12 26.6666C13.5008 26.6666 14.8858 26.1707 16 25.3338C17.1142 26.1707 18.4992 26.6666 20 26.6666C23.6819 26.6666 26.6667 23.6819 26.6667 20C26.6667 16.3181 23.6819 13.3333 20 13.3333C18.4992 13.3333 17.1142 13.8292 16 14.6662C14.8858 13.8292 13.5008 13.3333 12 13.3333C8.31807 13.3333 5.3333 16.3181 5.3333 20ZM17.7781 16.6725C18.3433 17.6517 18.6666 18.7881 18.6666 20C18.6666 21.2118 18.3433 22.3482 17.7782 23.3274C18.4252 23.7609 19.1918 24 20 24C22.2091 24 24 22.2091 24 20C24 17.7908 22.2091 16 20 16C19.1907 16 18.4234 16.2406 17.7781 16.6725Z" fill="#8950FC"/>
<path fill-rule="evenodd" clip-rule="evenodd" d="M16 18.6666C19.6819 18.6666 22.6666 15.6819 22.6666 12C22.6666 8.31808 19.6819 5.33331 16 5.33331C12.3181 5.33331 9.3333 8.31808 9.3333 12C9.3333 15.6819 12.3181 18.6666 16 18.6666Z" fill="#8950FC"/>
</svg>
