<svg width="26" height="26" viewBox="0 0 26 26" fill="none" xmlns="http://www.w3.org/2000/svg">
<path fill-rule="evenodd" clip-rule="evenodd" d="M5.13345 19.147L6.27654 17.8948C7.80896 19.3553 9.7811 20.2867 11.9166 20.5236V21.6667H10.6666C9.56205 21.6667 8.66662 22.5621 8.66662 23.6667V23.8333H17.3333V23.6667C17.3333 22.5621 16.4379 21.6667 15.3333 21.6667H14.0833V20.5238C18.9583 19.985 22.75 15.852 22.75 10.8333C22.75 7.67983 21.2411 4.77645 18.7421 2.95282C18.2588 2.60013 17.5811 2.70601 17.2284 3.18931C16.8757 3.67261 16.9816 4.35032 17.4649 4.70301C19.4107 6.12299 20.5833 8.37925 20.5833 10.8333C20.5833 15.0215 17.1882 18.4167 13 18.4167C10.6851 18.4167 8.54342 17.3744 7.11108 15.6116C6.6935 15.0977 5.91664 15.0753 5.4702 15.5644L3.53323 17.6863C3.12986 18.1282 3.16108 18.8134 3.60297 19.2168C4.04486 19.6201 4.73008 19.5889 5.13345 19.147Z" fill="#3699FF"/>
<path opacity="0.3" fill-rule="evenodd" clip-rule="evenodd" d="M13 17.3334C16.5899 17.3334 19.5 14.4232 19.5 10.8334C19.5 7.24352 16.5899 4.33337 13 4.33337C9.41015 4.33337 6.5 7.24352 6.5 10.8334C6.5 14.4232 9.41015 17.3334 13 17.3334Z" fill="#3699FF"/>
</svg>
