<svg width="22" height="22" viewBox="0 0 22 22" fill="none" xmlns="http://www.w3.org/2000/svg">
<path fill-rule="evenodd" clip-rule="evenodd" d="M5.16666 3.66663C4.33823 3.66663 3.66666 4.3382 3.66666 5.16663V5.83329C3.66666 6.66172 4.33823 7.33329 5.16666 7.33329H8.58332C9.41175 7.33329 10.0833 6.66172 10.0833 5.83329V5.16663C10.0833 4.3382 9.41175 3.66663 8.58332 3.66663H5.16666ZM13.4167 14.6666C12.5882 14.6666 11.9167 15.3382 11.9167 16.1666V16.8333C11.9167 17.6617 12.5882 18.3333 13.4167 18.3333H16.8333C17.6617 18.3333 18.3333 17.6617 18.3333 16.8333V16.1666C18.3333 15.3382 17.6618 14.6666 16.8333 14.6666H13.4167Z" fill="#3699FF"/>
<path opacity="0.3" fill-rule="evenodd" clip-rule="evenodd" d="M13.4167 3.66663C12.5882 3.66663 11.9167 4.3382 11.9167 5.16663V11.3333C11.9167 12.1617 12.5882 12.8333 13.4167 12.8333H16.8333C17.6617 12.8333 18.3333 12.1617 18.3333 11.3333V5.16663C18.3333 4.3382 17.6618 3.66663 16.8333 3.66663H13.4167ZM5.16666 9.16663C4.33823 9.16663 3.66666 9.8382 3.66666 10.6666V16.8333C3.66666 17.6617 4.33823 18.3333 5.16666 18.3333H8.58332C9.41175 18.3333 10.0833 17.6617 10.0833 16.8333V10.6666C10.0833 9.8382 9.41175 9.16663 8.58332 9.16663H5.16666Z" fill="#3699FF"/>
</svg>
