<svg width="30" height="30" viewBox="0 0 30 30" fill="none" xmlns="http://www.w3.org/2000/svg">
<rect x="5" y="5" width="8.75" height="8.75" rx="1.5" fill="#F64E60"/>
<path opacity="0.3" fill-rule="evenodd" clip-rule="evenodd" d="M16.25 6.5C16.25 5.67157 16.9216 5 17.75 5H23.5C24.3284 5 25 5.67157 25 6.5V12.25C25 13.0784 24.3284 13.75 23.5 13.75H17.75C16.9216 13.75 16.25 13.0784 16.25 12.25V6.5ZM5 17.75C5 16.9216 5.67157 16.25 6.5 16.25H12.25C13.0784 16.25 13.75 16.9216 13.75 17.75V23.5C13.75 24.3284 13.0784 25 12.25 25H6.5C5.67157 25 5 24.3284 5 23.5V17.75ZM17.75 16.25C16.9216 16.25 16.25 16.9216 16.25 17.75V23.5C16.25 24.3284 16.9216 25 17.75 25H23.5C24.3284 25 25 24.3284 25 23.5V17.75C25 16.9216 24.3284 16.25 23.5 16.25H17.75Z" fill="#F64E60"/>
</svg>
