<svg width="26" height="26" viewBox="0 0 26 26" fill="none" xmlns="http://www.w3.org/2000/svg">
<path fill-rule="evenodd" clip-rule="evenodd" d="M5.33333 3.25C4.78104 3.25 4.33333 3.69772 4.33333 4.25V21.75C4.33333 22.3023 4.78104 22.75 5.33333 22.75H6.58333C7.13561 22.75 7.58333 22.3023 7.58333 21.75V4.25C7.58333 3.69772 7.13561 3.25 6.58333 3.25H5.33333ZM10.75 3.25C10.1977 3.25 9.74999 3.69772 9.74999 4.25V21.75C9.74999 22.3023 10.1977 22.75 10.75 22.75H12C12.5523 22.75 13 22.3023 13 21.75V4.25C13 3.69772 12.5523 3.25 12 3.25H10.75Z" fill="#FFA800"/>
<rect opacity="0.3" x="14.6003" y="4.2511" width="3.25" height="19.5" rx="1" transform="rotate(-19 14.6003 4.2511)" fill="#FFA800"/>
</svg>
