<svg width="25" height="23" viewBox="0 0 25 23" fill="none" xmlns="http://www.w3.org/2000/svg">
<path fill-rule="evenodd" clip-rule="evenodd" d="M23.1454 17.3575C23.4678 17.6477 23.9816 17.4177 23.9798 16.9839L23.9624 12.5862V5.48097C23.9624 4.17293 22.7842 3.11255 21.3309 3.11255H9.05016C7.59678 3.11255 6.41858 4.17293 6.41858 5.48097V8.73755H13.6667C15.3235 8.73755 16.6667 10.0807 16.6667 11.7375V14.9547H20.4755L23.1454 17.3575Z" fill="white"/>
<path opacity="0.3" fill-rule="evenodd" clip-rule="evenodd" d="M2.06778 17.175V12.4875C2.06778 11.452 3.00052 10.6125 4.15111 10.6125H12.4844C13.635 10.6125 14.5678 11.452 14.5678 12.4875V17.175C14.5678 18.2106 13.635 19.05 12.4844 19.05H4.27167L2.92135 20.2132C2.59726 20.4924 2.09502 20.2622 2.09502 19.8344V17.479C2.0771 17.3801 2.06778 17.2786 2.06778 17.175ZM6.25001 13.8938C6.25001 13.6349 6.45987 13.425 6.71876 13.425H12.0313C12.2901 13.425 12.5 13.6349 12.5 13.8938C12.5 14.1527 12.2901 14.3625 12.0313 14.3625H6.71876C6.45987 14.3625 6.25001 14.1527 6.25001 13.8938ZM9.84375 15.3001C9.58487 15.3001 9.37501 15.5099 9.37501 15.7688C9.37501 16.0277 9.58487 16.2376 9.84375 16.2376H12.0313C12.2901 16.2376 12.5 16.0277 12.5 15.7688C12.5 15.5099 12.2901 15.3001 12.0313 15.3001H9.84375Z" fill="white"/>
</svg>
