<svg width="27" height="27" viewBox="0 0 27 27" fill="none" xmlns="http://www.w3.org/2000/svg">
<path fill-rule="evenodd" clip-rule="evenodd" d="M10.1009 21.1503C10.1168 21.0643 10.125 20.9709 10.125 20.8701V20.8227C10.125 20.8193 10.125 20.8159 10.125 20.8125C10.125 20.8091 10.125 20.8057 10.125 20.8023V9C10.125 9 14.6546 8.1366 15.75 7.875C16.2575 7.75379 16.875 7.33263 16.875 6.67317V4.69482C16.875 3.80504 16.0468 3.17056 15.2318 3.43596L8.7631 5.41431C8.23473 5.58637 7.87498 6.09631 7.87498 6.67317V18.16C7.52311 18.0564 7.14446 18 6.75 18C4.88604 18 3.375 19.2592 3.375 20.8125C3.375 22.3658 4.88604 23.625 6.75 23.625C8.47679 23.625 9.90069 22.5443 10.1009 21.1503Z" fill="#1BC5BD"/>
<path opacity="0.3" fill-rule="evenodd" clip-rule="evenodd" d="M16.875 11.125C16.875 10.5727 17.3227 10.125 17.875 10.125H22.625C23.1773 10.125 23.625 10.5727 23.625 11.125V11.375C23.625 11.9273 23.1773 12.375 22.625 12.375H17.875C17.3227 12.375 16.875 11.9273 16.875 11.375V11.125ZM14.625 15.625C14.625 15.0727 15.0727 14.625 15.625 14.625H22.625C23.1773 14.625 23.625 15.0727 23.625 15.625V15.875C23.625 16.4273 23.1773 16.875 22.625 16.875H15.625C15.0727 16.875 14.625 16.4273 14.625 15.875V15.625ZM15.625 19.125C15.0727 19.125 14.625 19.5727 14.625 20.125V20.375C14.625 20.9273 15.0727 21.375 15.625 21.375H22.625C23.1773 21.375 23.625 20.9273 23.625 20.375V20.125C23.625 19.5727 23.1773 19.125 22.625 19.125H15.625Z" fill="#1BC5BD"/>
</svg>
