<svg width="18" height="18" viewBox="0 0 18 18" fill="none" xmlns="http://www.w3.org/2000/svg">
<path d="M9.6857 5.9733L10.7464 7.03396L8.8902 8.89012C8.45086 9.32946 8.45086 10.0418 8.8902 10.4811C9.32954 10.9204 10.0419 10.9204 10.4812 10.4811L13.1328 7.82946C14.158 6.80433 14.158 5.14227 13.1328 4.11715C12.1077 3.09202 10.4457 3.09202 9.42053 4.11715L4.11723 9.42045C3.09211 10.4456 3.09211 12.1076 4.11723 13.1328L4.3824 13.3979C5.26108 14.2766 6.6857 14.2766 7.56438 13.3979L8.62504 14.4586C7.16057 15.923 4.7862 15.923 3.32174 14.4586L3.05657 14.1934C1.44566 12.5825 1.44566 9.9707 3.05657 8.35979L8.35987 3.05649C9.97078 1.44558 12.5826 1.44558 14.1935 3.05649C15.8044 4.6674 15.8044 7.27921 14.1935 8.89012L11.5419 11.5418C10.5167 12.5669 8.85467 12.5669 7.82954 11.5418C6.80442 10.5166 6.80442 8.85458 7.82954 7.82946L9.6857 5.9733Z" fill="#D6D6E0"/>
</svg>
