<svg width="28" height="28" viewBox="0 0 28 28" fill="none" xmlns="http://www.w3.org/2000/svg">
<path opacity="0.3" fill-rule="evenodd" clip-rule="evenodd" d="M9.33351 3.5H6.66675C5.56218 3.5 4.66675 4.39543 4.66675 5.5V24.8333C4.66675 25.9379 5.56218 26.8333 6.66675 26.8333H21.3334C22.438 26.8333 23.3334 25.9379 23.3334 24.8333V5.5C23.3334 4.39543 22.438 3.5 21.3334 3.5H18.6668V4.08333C18.6668 5.04983 17.8833 5.83333 16.9168 5.83333H11.0835C10.117 5.83333 9.33351 5.04983 9.33351 4.08333V3.5Z" fill="#3699FF"/>
<path fill-rule="evenodd" clip-rule="evenodd" d="M12.8332 2.33329C12.8332 1.68896 13.3556 1.16663 13.9999 1.16663C14.6442 1.16663 15.1666 1.68896 15.1666 2.33329L17 2.33329C17.2761 2.33329 17.5 2.55715 17.5 2.83329V4.16663C17.5 4.44277 17.2761 4.66663 17 4.66663H11C10.7239 4.66663 10.5 4.44277 10.5 4.16663V2.83329C10.5 2.55715 10.7239 2.33329 11 2.33329L12.8332 2.33329Z" fill="#3699FF"/>
<rect x="8.16675" y="11.6666" width="5.83333" height="2.33333" rx="1.16667" fill="#3699FF"/>
<rect x="8.16675" y="16.3334" width="10.5" height="2.33334" rx="1.16667" fill="#3699FF"/>
</svg>
