<svg width="42" height="42" viewBox="0 0 42 42" fill="none" xmlns="http://www.w3.org/2000/svg">
<rect width="42" height="42" rx="12" fill="#F3F6F9"/>
<path d="M32.6396 40.0813L31.8749 33.9639C31.7934 33.3116 31.3445 32.7642 30.721 32.5563L27.258 31.4019C26.9644 31.3041 26.6555 31.459 26.5483 31.7343L25.692 31.4489C25.2273 31.294 24.914 30.8592 24.914 30.3694V28.5343L27.3649 27.5131C28.637 26.9831 29.4656 25.7402 29.4656 24.362V23.793C30.4083 23.793 31.1725 23.0288 31.1725 22.0861C31.1725 21.6363 30.9982 21.2274 30.7138 20.9225C31.0005 19.2981 31.7108 14.7157 31.1725 11.8448C30.8525 10.1379 30.0346 9 30.0346 9C30.0346 9 25.7674 9.14224 22.6381 10.1379L22.0691 9C22.0691 9 15.7749 9 14.1041 11.8443L14.1036 11.8448C14.1036 11.8448 11.2588 11.8211 11.2588 15.2586C11.2588 16.5167 11.9605 19.6583 12.2618 20.9493C11.992 21.2512 11.8278 21.6494 11.8278 22.0861C11.8278 23.0288 12.5919 23.793 13.5346 23.793V24.362C13.5346 25.7402 14.3633 26.9831 15.6354 27.5132L18.0864 28.5344V30.3694C18.0864 30.8592 17.7729 31.294 17.3083 31.4489L16.452 31.7343C16.3448 31.459 16.036 31.3041 15.7424 31.4019L12.2794 32.5563C11.6558 32.7642 11.2069 33.3116 11.1254 33.9639L10.3608 40.0813C10.2334 41.1 11.0277 41.9999 12.0544 41.9999H30.9459C31.9726 41.9999 32.7669 41.1 32.6396 40.0813Z" fill="#F6B47B"/>
<path d="M16.0948 41.9998H26.9051V31.5071C26.662 31.5803 26.4453 31.7339 26.3027 31.9586C25.2941 33.5477 23.5215 34.6033 21.4999 34.6033C19.4784 34.6033 17.7057 33.5476 16.6972 31.9585C16.5546 31.7338 16.3379 31.5803 16.0948 31.507V41.9998Z" fill="#9BCE7A"/>
<path d="M18.0861 28.4869V30.3694C18.0861 30.7742 17.8715 31.1412 17.5348 31.3438C22.0689 32.1272 24.6606 28.7976 24.896 28.4869H18.0861V28.4869Z" fill="#E2A071"/>
<path d="M12.3965 21.5172L30.0344 9C30.0344 9 30.8523 10.1379 31.1723 11.8448C31.8355 15.382 30.6034 21.5172 30.6034 21.5172H12.3965Z" fill="#6E4439"/>
<path d="M22.0689 9C22.0689 9 15.7748 9 14.1039 11.8443L14.1034 11.8448C14.1034 11.8448 11.2586 11.8211 11.2586 15.2586C11.2586 16.8607 12.3965 21.5172 12.3965 21.5172C12.3965 21.5172 24.5108 16.1357 30.0344 9C30.0344 9 25.7672 9.14224 22.6379 10.1379L22.0689 9Z" fill="#5E342E"/>
<path d="M29.4654 20.3793V19.2414C29.4654 17.6702 28.1917 16.3965 26.6206 16.3965H16.3793C14.8082 16.3965 13.5345 17.6702 13.5345 19.2414V20.3793C12.5918 20.3793 11.8276 21.1435 11.8276 22.0862C11.8276 23.0289 12.5918 23.7931 13.5345 23.7931V24.362C13.5345 25.7402 14.3631 26.9832 15.6352 27.5132L19.3115 29.045C20.0049 29.334 20.7487 29.4827 21.4999 29.4827C22.251 29.4827 22.9948 29.334 23.6882 29.045L27.3647 27.5132C28.6368 26.9832 29.4654 25.7402 29.4654 24.362V23.7931C30.4081 23.7931 31.1723 23.0289 31.1723 22.0862C31.1723 21.1435 30.4081 20.3793 29.4654 20.3793Z" fill="#FDC88E"/>
<path d="M17.5172 22.6551C17.2043 22.6551 16.9482 22.3991 16.9482 22.0862V21.5172C16.9482 21.2043 17.2043 20.9482 17.5172 20.9482C17.8301 20.9482 18.0862 21.2043 18.0862 21.5172V22.0862C18.0862 22.3991 17.8301 22.6551 17.5172 22.6551Z" fill="#623F33"/>
<path d="M25.4827 22.6551C25.1698 22.6551 24.9137 22.3991 24.9137 22.0862V21.5172C24.9137 21.2043 25.1698 20.9482 25.4827 20.9482C25.7956 20.9482 26.0517 21.2043 26.0517 21.5172V22.0862C26.0517 22.3991 25.7956 22.6551 25.4827 22.6551Z" fill="#623F33"/>
<path d="M21.5 26.6534C20.4884 26.6534 19.5422 26.4045 18.9041 25.9703C18.6443 25.7936 18.5768 25.4397 18.7538 25.1799C18.9302 24.9205 19.2844 24.8529 19.5442 25.0297C19.9914 25.3339 20.7226 25.5156 21.5 25.5156C22.2773 25.5156 23.0085 25.3339 23.4558 25.0297C23.7161 24.8524 24.0695 24.9202 24.2462 25.1799C24.4231 25.4397 24.3556 25.7936 24.0959 25.9703C23.4579 26.4045 22.5115 26.6534 21.5 26.6534Z" fill="#E2A071"/>
<path d="M26.6206 18.1034V16.3965H16.3793C16.1838 16.3965 15.9938 16.4172 15.8103 16.4559V16.4539C14.5119 16.7176 13.5345 17.8652 13.5345 19.2414V20.3794C12.5918 20.3794 11.8276 21.1435 11.8276 22.0862C11.8276 23.0289 12.5918 23.7931 13.5345 23.7931V24.3621C13.5345 25.7403 14.3631 26.9832 15.6352 27.5133L19.3114 29.0451C19.4914 29.1201 19.675 29.1846 19.861 29.2406C18.2363 28.0521 17.1548 27.0131 16.5212 26.3338C16.0602 25.8395 15.8103 25.1872 15.8103 24.5113V18.6173C17.6033 17.7884 21.4242 16.5948 26.6206 18.1034Z" fill="#F6B47B"/>
<path d="M27.6036 31.5172C27.12 31.356 26.5759 31.5282 26.3027 31.9586C25.2941 33.5477 23.5214 34.6034 21.4999 34.6034C19.4784 34.6034 17.7057 33.5476 16.6972 31.9585C16.424 31.5281 15.8799 31.3559 15.3963 31.5172L15.2124 31.5785C16.2506 34.0251 18.6747 35.7413 21.4999 35.7413C24.3251 35.7413 26.7493 34.0251 27.7874 31.5785L27.6036 31.5172Z" fill="#8ABE69"/>
<path d="M18.0861 42L16.484 31.8531C16.4292 31.5058 16.0756 31.2909 15.7421 31.402L12.2791 32.5564C11.6555 32.7643 11.2066 33.3117 11.1251 33.964L10.3605 40.0814C10.2331 41.1001 11.0275 42 12.0542 42L18.0861 42Z" fill="#43A0C5"/>
<path d="M24.9137 42L26.5159 31.8531C26.5707 31.5058 26.9242 31.2909 27.2578 31.402L30.7208 32.5564C31.3444 32.7643 31.7932 33.3117 31.8747 33.964L32.6394 40.0814C32.7668 41.1001 31.9724 42 30.9457 42L24.9137 42Z" fill="#43A0C5"/>
<path d="M31.5315 33.1362C31.7135 33.3728 31.8362 33.6558 31.8748 33.9638L32.6394 40.0812C32.7668 41.1 31.9724 41.9998 30.9457 41.9998H27.7585V38.7308C27.7585 37.9039 28.0587 37.1051 28.6032 36.4828L31.5315 33.1362Z" fill="#2C8CB3"/>
<path d="M32.5912 39.695C31.4718 39.552 30.6034 38.6064 30.6034 37.4481C30.6034 36.486 31.2023 35.6678 32.0461 35.3348L32.5912 39.695Z" fill="#FFC84A"/>
<path d="M22.4946 16.2543C24.2352 16.5654 26.1634 17.4294 27.1895 19.2413C27.1895 19.2413 27.3592 17.5808 26.9544 16.2543H22.4946Z" fill="#6E4439"/>
<path d="M11.4684 33.1362C11.2864 33.3728 11.1637 33.6558 11.1251 33.9638L10.3605 40.0812C10.2331 41.1 11.0275 41.9998 12.0542 41.9998H15.2413V38.7308C15.2413 37.9039 14.9412 37.1051 14.3967 36.4828L11.4684 33.1362Z" fill="#2C8CB3"/>
</svg>
