<svg width="42" height="42" viewBox="0 0 42 42" fill="none" xmlns="http://www.w3.org/2000/svg">
<rect width="42" height="42" rx="12" fill="#F3F6F9"/>
<path d="M33.4483 37.4483C33.4483 37.4483 29.259 39.1552 21.5 39.1552C13.741 39.1552 9.55164 37.4483 9.55164 37.4483L11.0563 18.6393C11.4919 13.1957 16.0366 9 21.4976 9H21.5022C26.9633 9 31.508 13.1957 31.9435 18.6393L33.4483 37.4483Z" fill="#E69F5F"/>
<path d="M24.5449 9.45361C23.5799 9.16073 22.559 9 21.5022 9H21.4977C16.0366 9 11.4918 13.1957 11.0563 18.6393L9.55164 37.4483C9.55164 37.4483 11.6053 38.2811 15.4879 38.7831L24.5449 9.45361Z" fill="#E09156"/>
<path d="M32.2668 38.4433L32.1583 38.0716C32.1058 37.892 31.9309 37.7819 31.751 37.8048L31.3716 34.9598C31.247 34.0252 30.6674 33.213 29.824 32.7913L28.5985 32.1786C28.4159 32.0873 28.2066 32.1683 28.1173 32.3414L25.6918 31.449C25.2271 31.2941 24.9138 30.8593 24.9138 30.3695V28.5344L27.3647 27.5132C28.6369 26.9832 29.4655 25.7402 29.4655 24.3621V23.7931C30.4082 23.7931 31.1724 23.0289 31.1724 22.0862C31.1724 21.1435 30.4082 20.3793 29.4655 20.3793V19.2414C29.4655 17.6702 28.1918 15.2586 26.6207 15.2586H16.3793C14.8082 15.2586 13.5345 17.6702 13.5345 19.2414V20.3793C12.5918 20.3793 11.8276 21.1435 11.8276 22.0862C11.8276 23.0289 12.5918 23.7931 13.5345 23.7931V24.3621C13.5345 25.7402 14.3631 26.9832 15.6352 27.5133L18.0862 28.5346V30.3695C18.0862 30.8594 17.7728 31.2942 17.3081 31.4491L14.8828 32.3414C14.7945 32.168 14.5856 32.0866 14.4033 32.1777L13.2857 32.7365C12.332 33.2134 11.753 34.0253 11.6284 34.9599L11.249 37.8049C11.0691 37.782 10.8942 37.8921 10.8417 38.0716L10.7332 38.4434C10.675 38.6424 10.7893 38.8508 10.9883 38.9089L11.8276 39.1537V40.8621C11.8276 41.4905 12.3371 42 12.9655 42H15.2414H27.7586H30.0345C30.6629 42 31.1724 41.4905 31.1724 40.8621V39.1537L32.0115 38.9089C32.2105 38.8508 32.3248 38.6424 32.2668 38.4433Z" fill="#FFD7A3"/>
<path d="M24.9138 28.5345L18.0862 28.5346V30.3695C18.0862 30.7744 17.8716 31.1413 17.5349 31.344C22.2946 32.1663 24.9138 28.5345 24.9138 28.5345Z" fill="#FDC88E"/>
<path d="M29.4655 20.3793V19.2414C29.4655 17.6702 28.1918 15.2586 26.6207 15.2586H16.3793C14.8082 15.2586 13.5345 17.6702 13.5345 19.2414V20.3793C12.5918 20.3793 11.8276 21.1435 11.8276 22.0862C11.8276 23.0289 12.5918 23.7931 13.5345 23.7931V24.3621C13.5345 25.7402 14.3631 26.9832 15.6353 27.5133L19.3116 29.0451C20.005 29.334 20.7488 29.4827 21.4999 29.4827C22.2511 29.4827 22.9948 29.334 23.6883 29.0451L27.3648 27.5132C28.6369 26.9832 29.4655 25.7402 29.4655 24.3621V23.7931C30.4082 23.7931 31.1724 23.0289 31.1724 22.0862C31.1724 21.1435 30.4082 20.3793 29.4655 20.3793Z" fill="#FFE1B2"/>
<path d="M25.4828 22.6551C25.1698 22.6551 24.9138 22.3991 24.9138 22.0862V21.5172C24.9138 21.2043 25.1698 20.9482 25.4828 20.9482C25.7957 20.9482 26.0517 21.2043 26.0517 21.5172V22.0862C26.0517 22.3991 25.7956 22.6551 25.4828 22.6551Z" fill="#623F33"/>
<path d="M21.4999 26.6535C20.4884 26.6535 19.5422 26.4046 18.904 25.9704C18.6443 25.7937 18.5767 25.4397 18.7538 25.18C18.9301 24.9206 19.2844 24.853 19.5441 25.0297C19.9914 25.3339 20.7226 25.5156 21.4999 25.5156C22.2773 25.5156 23.0085 25.3339 23.4558 25.0297C23.7161 24.8525 24.0695 24.9203 24.2461 25.18C24.4231 25.4397 24.3556 25.7937 24.0959 25.9704C23.4578 26.4046 22.5116 26.6535 21.4999 26.6535Z" fill="#E4B07B"/>
<path d="M16.5212 26.3338C16.0602 25.8395 15.8104 25.1872 15.8104 24.5113V22.0632C18.9133 21.8281 23.1024 19.7728 25.6125 17.8062L24.9138 17.1075C24.9138 17.1075 19.8642 20.379 13.5345 20.379V20.3793C12.5918 20.3793 11.8276 21.1435 11.8276 22.0862C11.8276 23.0289 12.5918 23.7931 13.5345 23.7931V24.3621C13.5345 25.7403 14.3631 26.9832 15.6353 27.5133L19.3115 29.0451C19.4914 29.1201 19.6751 29.1846 19.861 29.2406C18.2363 28.052 17.1548 27.0131 16.5212 26.3338Z" fill="#FFD7A3"/>
<path d="M31.8261 38.3683L31.3716 34.9598C31.247 34.0251 30.6674 33.213 29.824 32.7913L28.5985 32.1786C28.3909 32.0747 28.1485 32.1936 28.0875 32.4177C27.2988 35.3166 24.6487 37.4485 21.4998 37.4485C18.3503 37.4485 15.6996 35.3156 14.9116 32.4155C14.851 32.1926 14.6099 32.0743 14.4033 32.1776L13.2858 32.7364C12.332 33.2132 11.753 34.0251 11.6284 34.9597L11.1652 38.433C12.6683 38.9506 15.2413 39.7241 15.2413 39.7241V42H27.7585V39.7241L31.8261 38.3683Z" fill="#FF6473"/>
<path d="M15.2272 39.5503C15.1924 38.8738 14.9665 38.22 14.5585 37.6759L11.8874 34.1145C11.7585 34.3801 11.6679 34.6627 11.6282 34.9599L11.1772 38.3425L15.2272 39.5503Z" fill="#F05467"/>
<path d="M10.7332 38.4434C10.675 38.6424 10.7893 38.8509 10.9883 38.9089L15.2413 40.1496V39.7242C15.2413 39.4554 15.199 39.1921 15.1374 38.9338L11.3071 37.8165C11.1081 37.7585 10.8997 37.8727 10.8417 38.0717L10.7332 38.4434Z" fill="#D4445A"/>
<path d="M27.7727 39.5503C27.8075 38.8738 28.0334 38.22 28.4414 37.6759L31.1125 34.1145C31.2414 34.3801 31.332 34.6627 31.3717 34.9599L31.8227 38.3425L27.7727 39.5503Z" fill="#F05467"/>
<path d="M32.2668 38.4434C32.3249 38.6424 32.2107 38.8509 32.0117 38.9089L27.7586 40.1496V39.7242C27.7586 39.4554 27.8009 39.1921 27.8625 38.9338L31.6928 37.8165C31.8918 37.7585 32.1002 37.8727 32.1582 38.0717L32.2668 38.4434Z" fill="#D4445A"/>
<path d="M17.5171 22.6551C17.2042 22.6551 16.9482 22.3991 16.9482 22.0862V21.5172C16.9482 21.2043 17.2042 20.9482 17.5171 20.9482C17.8301 20.9482 18.0861 21.2043 18.0861 21.5172V22.0862C18.0861 22.3991 17.8301 22.6551 17.5171 22.6551Z" fill="#623F33"/>
<path d="M12.3773 17.0349L12.3965 20.8099C17.7662 20.8099 22.2183 19.1321 25.1391 17.6213C24.2315 18.6058 22.8663 19.9459 20.931 21.5173C20.931 21.5173 25.9969 19.5028 28.8348 17.001V17.0008C28.8348 13.289 25.8257 10.2799 22.1138 10.2799H19.0981C15.373 10.2799 12.3584 13.3099 12.3773 17.0349Z" fill="#E69F5F"/>
<path d="M24.1876 10.6065C23.5344 10.3948 22.8376 10.28 22.1139 10.28H19.0982C15.373 10.28 12.3584 13.3099 12.3773 17.035L12.3965 20.81C13.9623 20.81 15.4495 20.6666 16.844 20.427C21.984 16.4908 24.1793 10.6288 24.1876 10.6065Z" fill="#E09156"/>
</svg>
