<svg width="27" height="25" viewBox="0 0 27 25" fill="none" xmlns="http://www.w3.org/2000/svg">
<path opacity="0.3" d="M13.5 4.81905L8.73925 9.96066C8.34149 10.3902 7.6321 10.4483 7.15479 10.0903C6.67748 9.73232 6.61299 9.09387 7.01075 8.66429L12.6358 2.58929C13.0855 2.10354 13.9145 2.10354 14.3642 2.58929L19.9893 8.66429C20.387 9.09387 20.3225 9.73232 19.8452 10.0903C19.3679 10.4483 18.6585 10.3902 18.2608 9.96066L13.5 4.81905Z" fill="white"/>
<path fill-rule="evenodd" clip-rule="evenodd" d="M5.51693 9.3125C4.78278 9.3125 4.2989 10.0772 4.61323 10.7407L8.1873 18.2845C8.68364 19.3321 9.73915 20 10.8984 20H16.1016C17.2609 20 18.3165 19.332 18.8128 18.2842L22.386 10.7406C22.7003 10.0771 22.2164 9.3125 21.4823 9.3125H5.51693ZM15.75 15.3875C15.75 16.5059 14.7426 17.4125 13.5 17.4125C12.2573 17.4125 11.25 16.5059 11.25 15.3875C11.25 14.2691 12.2573 13.3625 13.5 13.3625C14.7426 13.3625 15.75 14.2691 15.75 15.3875Z" fill="white"/>
</svg>
