<svg width="23" height="23" viewBox="0 0 23 23" fill="none" xmlns="http://www.w3.org/2000/svg">
<path fill-rule="evenodd" clip-rule="evenodd" d="M4.54113 16.9378L5.55233 15.83C6.90794 17.122 8.65254 17.946 10.5417 18.1555V19.1667H9.58334C8.5248 19.1667 7.66667 20.0248 7.66667 21.0834H15.3333C15.3333 20.0248 14.4752 19.1667 13.4167 19.1667H12.4583V18.1557C16.7708 17.679 20.125 14.0229 20.125 9.58336C20.125 6.79372 18.7902 4.22534 16.5796 2.61213C16.152 2.30014 15.5525 2.3938 15.2405 2.82134C14.9285 3.24887 15.0222 3.84838 15.4497 4.16038C17.171 5.41651 18.2083 7.41244 18.2083 9.58336C18.2083 13.2883 15.2049 16.2917 11.5 16.2917C9.45225 16.2917 7.55764 15.3697 6.29057 13.8103C5.92117 13.3557 5.23395 13.3359 4.83902 13.7685L3.12555 15.6456C2.76872 16.0365 2.79634 16.6427 3.18724 16.9995C3.57814 17.3563 4.1843 17.3287 4.54113 16.9378Z" fill="#80808F"/>
<path opacity="0.3" fill-rule="evenodd" clip-rule="evenodd" d="M11.5 15.3333C14.6756 15.3333 17.25 12.759 17.25 9.58331C17.25 6.40768 14.6756 3.83331 11.5 3.83331C8.32436 3.83331 5.75 6.40768 5.75 9.58331C5.75 12.759 8.32436 15.3333 11.5 15.3333Z" fill="#80808F"/>
</svg>
