<svg width="19" height="19" viewBox="0 0 19 19" fill="none" xmlns="http://www.w3.org/2000/svg">
<path opacity="0.3" fill-rule="evenodd" clip-rule="evenodd" d="M3.95831 5.54167C3.95831 7.29057 5.37608 8.70833 7.12498 8.70833C8.87388 8.70833 10.2916 7.29057 10.2916 5.54167C10.2916 3.79277 8.87388 2.375 7.12498 2.375C5.37608 2.375 3.95831 3.79277 3.95831 5.54167ZM11.875 8.70834C11.875 10.02 12.9383 11.0833 14.25 11.0833C15.5617 11.0833 16.625 10.02 16.625 8.70834C16.625 7.39666 15.5617 6.33334 14.25 6.33334C12.9383 6.33334 11.875 7.39666 11.875 8.70834Z" fill="#80808F"/>
<path fill-rule="evenodd" clip-rule="evenodd" d="M7.11181 10.2917C3.37401 10.2917 0.307371 12.2127 0.000515917 15.9911C-0.0161989 16.1969 0.377397 16.625 0.575939 16.625H13.6536C14.2483 16.625 14.2576 16.1464 14.2484 15.9917C14.0164 12.1071 10.9022 10.2917 7.11181 10.2917ZM18.5694 16.625H15.5169V16.625C15.5169 14.843 14.9281 13.1986 13.9345 11.8755C16.6312 11.905 18.8332 13.2685 18.9989 16.15C19.0056 16.2661 18.9989 16.625 18.5694 16.625Z" fill="#80808F"/>
</svg>
