<svg width="17" height="17" viewBox="0 0 17 17" fill="none" xmlns="http://www.w3.org/2000/svg">
<path fill-rule="evenodd" clip-rule="evenodd" d="M15.4515 12.6005C15.7671 12.9161 16.3066 12.6914 16.305 12.2451L16.2945 9.2829V3.91447C16.2945 2.92617 15.4933 2.125 14.505 2.125H6.15413C5.16583 2.125 4.36465 2.92617 4.36465 3.91447V6.375H8.33332C9.99017 6.375 11.3333 7.71815 11.3333 9.375V11.0724H13.9234L15.4515 12.6005Z" fill="#3699FF"/>
<path opacity="0.3" fill-rule="evenodd" clip-rule="evenodd" d="M1.4061 12.75V9.20832C1.4061 8.42592 2.04036 7.79166 2.82276 7.79166H8.48943C9.27183 7.79166 9.9061 8.42592 9.9061 9.20832V12.75C9.9061 13.5324 9.27183 14.1667 8.48943 14.1667H2.90474L2.27035 14.7739C1.95234 15.0782 1.42462 14.8528 1.42462 14.4126V12.9797C1.41243 12.9049 1.4061 12.8282 1.4061 12.75ZM4.25 10.2708C4.25 10.0752 4.40857 9.91666 4.60417 9.91666H8.14583C8.34143 9.91666 8.5 10.0752 8.5 10.2708C8.5 10.4664 8.34143 10.625 8.14583 10.625H4.60417C4.40857 10.625 4.25 10.4664 4.25 10.2708ZM6.72917 11.3333C6.53357 11.3333 6.375 11.4919 6.375 11.6875C6.375 11.8831 6.53357 12.0417 6.72917 12.0417H8.14583C8.34143 12.0417 8.5 11.8831 8.5 11.6875C8.5 11.4919 8.34143 11.3333 8.14583 11.3333H6.72917Z" fill="#3699FF"/>
</svg>
